<?xml version="1.0" standalone="no"?><!DOCTYPE svg PUBLIC "-//W3C//DTD SVG 1.1//EN" "http://www.w3.org/Graphics/SVG/1.1/DTD/svg11.dtd"><svg t="1576392405433" class="icon" viewBox="0 0 1024 1024" version="1.1" xmlns="http://www.w3.org/2000/svg" p-id="3198" xmlns:xlink="http://www.w3.org/1999/xlink" width="128" height="128"><defs><style type="text/css"></style></defs><path d="M762.88 606.72H233.984c-11.264 0-20.48-9.216-20.48-20.48s9.216-20.48 20.48-20.48H762.88c11.264 0 20.48 9.216 20.48 20.48s-9.216 20.48-20.48 20.48zM735.744 765.952H261.12c-11.264 0-20.48-9.216-20.48-20.48s9.216-20.48 20.48-20.48h474.624c11.264 0 20.48 9.216 20.48 20.48s-9.216 20.48-20.48 20.48zM535.552 304.64H464.896c-11.264 0-20.48-9.216-20.48-20.48s9.216-20.48 20.48-20.48h70.656c11.264 0 20.48 9.216 20.48 20.48s-9.216 20.48-20.48 20.48z" fill="#4C4C4C" p-id="3199"></path><path d="M742.912 926.72H224.256c-36.864 0-123.392-46.592-123.904-110.08l-44.544-439.808v-2.048c0-61.44 55.808-111.104 124.416-111.104h43.52c11.264 0 20.48 9.216 20.48 20.48s-9.216 20.48-20.48 20.48h-43.52c-45.568 0-82.432 31.232-83.456 69.12l44.544 439.808v2.048c0 36.352 64.512 70.144 83.456 70.144h518.656c68.608 0 112.64-27.648 112.64-70.144v-2.048l44.544-439.808c-0.512-38.4-37.888-69.12-83.456-69.12h-43.008c-11.264 0-20.48-9.216-20.48-20.48s9.216-20.48 20.48-20.48h43.008c68.608 0 124.416 49.664 124.416 111.104v2.048l-44.544 439.808c-1.024 54.784-48.64 110.08-154.112 110.08z m177.664-551.936z" fill="#4C4C4C" p-id="3200"></path><path d="M902.144 460.288H94.72c-11.264 0-20.48-9.216-20.48-20.48s9.216-20.48 20.48-20.48h807.424c11.264 0 20.48 9.216 20.48 20.48s-9.216 20.48-20.48 20.48z" fill="#4C4C4C" p-id="3201"></path><path d="M679.424 439.808c-11.264 0-20.48-9.216-20.48-20.48 0-148.48-72.192-268.8-160.768-268.8C409.6 150.528 337.408 271.36 337.408 419.328c0 11.264-9.216 20.48-20.48 20.48s-20.48-9.216-20.48-20.48c0-80.896 19.968-157.696 56.32-215.552 37.888-60.928 89.6-94.208 145.408-94.208 55.808 0 107.52 33.28 145.408 94.208 36.352 57.856 56.32 134.656 56.32 215.552 0 11.264-9.216 20.48-20.48 20.48z" fill="#4C4C4C" p-id="3202"></path></svg>