<?xml version="1.0" standalone="no"?><!DOCTYPE svg PUBLIC "-//W3C//DTD SVG 1.1//EN" "http://www.w3.org/Graphics/SVG/1.1/DTD/svg11.dtd"><svg t="1576400608278" class="icon" viewBox="0 0 1024 1024" version="1.1" xmlns="http://www.w3.org/2000/svg" p-id="7083" xmlns:xlink="http://www.w3.org/1999/xlink" width="128" height="128"><defs><style type="text/css"></style></defs><path d="M328.8 571.3c-3 0-6-1.1-8.3-3.4-4.6-4.6-4.6-11.9 0-16.5l72.6-72.6c4.6-4.6 11.9-4.6 16.5 0s4.6 11.9 0 16.5L337 567.9c-2.2 2.3-5.2 3.4-8.2 3.4zM475.3 529.8c-3 0-6-1.1-8.3-3.4-4.6-4.6-4.6-11.9 0-16.5l42.7-42.7c4.6-4.6 11.9-4.6 16.5 0s4.6 11.9 0 16.5l-42.7 42.7c-2.2 2.3-5.2 3.4-8.2 3.4z" fill="" p-id="7084"></path><path d="M401.5 571.3c-3 0-6-1.1-8.3-3.4l-72.6-72.6c-4.6-4.6-4.6-11.9 0-16.5s11.9-4.6 16.5 0l72.6 72.6c4.6 4.6 4.6 11.9 0 16.5-2.3 2.3-5.3 3.4-8.2 3.4z" fill="" p-id="7085"></path><path d="M427.5 804.5c-19 0-42.4-8.2-70.3-32.4-30.9-26.9-56.9-64.6-65.4-77-28.9-42-50.3-84.4-61.8-122.7-13-43.2-13.8-80.9-2.4-112.3 14-38.7 45.5-65.3 93.5-79.1 3.8-2.1 17.3-10.3 33.5-26.5s24.3-29.6 26.5-33.5c13.8-48 40.4-79.4 79.1-93.5 31.3-11.4 69.1-10.5 112.3 2.4 38.2 11.5 80.7 32.9 122.7 61.8 12.4 8.5 50.1 34.5 77 65.4 43.1 49.5 35.4 85.1 21.5 106.2-10.5 15.8-25.2 25.6-45 29.9-16.2 3.5-34.1 3.1-53 2.7-45.8-1.1-97.8-2.3-148.4 50.6-0.1 0.2-0.3 0.3-0.5 0.5-52.8 50.6-51.6 102.6-50.6 148.4 0.4 19 0.8 36.9-2.7 53-4.3 19.8-14.1 34.5-29.9 45-9.5 6.3-21.5 11.1-36.1 11.1zM375.9 376c-22.8 22.8-41.6 32.3-42.4 32.7-0.9 0.4-1.8 0.8-2.7 1-39 10.9-64.1 31.3-74.8 60.7-18 49.6 4.1 125.3 60.7 207.4 8 11.6 32.3 47 60.3 71.3 42.5 37 62.9 23.5 69.6 19 19.5-12.9 19.9-34.7 19.1-72.1-0.6-24.2-1.2-51.7 6-80.8 8.4-34 26-63.4 53.6-90 26.6-27.6 56-45.2 90-53.6 29.1-7.2 56.6-6.6 80.8-6 37.4 0.9 59.2 0.4 72.1-19.1 4.4-6.7 17.9-27.1-19-69.6-24.4-28-59.7-52.3-71.3-60.3-82.2-56.6-157.8-78.7-207.4-60.7-29.4 10.7-49.9 35.9-60.7 74.8-0.3 0.9-0.6 1.8-1 2.7-0.6 1-10.1 19.7-32.9 42.6z m-49.2 19.2z" fill="" p-id="7086"></path><path d="M488.271012 323.337957a16.2 16.2 0 1 0 22.909859-22.91066 16.2 16.2 0 1 0-22.909859 22.91066Z" fill="" p-id="7087"></path><path d="M563.161313 398.258543a16.2 16.2 0 1 0 22.90986-22.91066 16.2 16.2 0 1 0-22.90986 22.91066Z" fill="" p-id="7088"></path><path d="M563.177163 323.352806a16.2 16.2 0 1 0 22.909859-22.910659 16.2 16.2 0 1 0-22.909859 22.910659Z" fill="" p-id="7089"></path><path d="M488.256283 398.2424a16.2 16.2 0 1 0 22.90986-22.910659 16.2 16.2 0 1 0-22.90986 22.910659Z" fill="" p-id="7090"></path><path d="M512 977.8c-62.9 0-123.9-12.3-181.3-36.6-55.5-23.5-105.3-57-148-99.8-42.8-42.8-76.3-92.6-99.8-148C58.6 636 46.3 575 46.3 512.1s12.3-123.9 36.6-181.3c23.5-55.5 57-105.3 99.8-148 42.8-42.8 92.6-76.3 148-99.8C388.1 58.7 449.1 46.4 512 46.4c62.9 0 123.9 12.3 181.3 36.6 55.5 23.5 105.3 57 148 99.8 42.8 42.8 76.3 92.6 99.8 148 24.3 57.4 36.6 118.4 36.6 181.3S965.4 636 941.1 693.4c-23.5 55.5-57 105.3-99.8 148-42.8 42.8-92.6 76.3-148 99.8-57.4 24.3-118.4 36.6-181.3 36.6z m0-894.6c-236.5 0-429 192.4-429 429s192.4 429 429 429c236.5 0 429-192.4 429-429s-192.5-429-429-429z" fill="" p-id="7091"></path></svg>