<?xml version="1.0" standalone="no"?><!DOCTYPE svg PUBLIC "-//W3C//DTD SVG 1.1//EN" "http://www.w3.org/Graphics/SVG/1.1/DTD/svg11.dtd"><svg t="1576400325055" class="icon" viewBox="0 0 1024 1024" version="1.1" xmlns="http://www.w3.org/2000/svg" p-id="4144" xmlns:xlink="http://www.w3.org/1999/xlink" width="128" height="128"><defs><style type="text/css"></style></defs><path d="M672.914286 386.844444h-282.096649c-1.444797 0-2.889594-0.722399-3.973193-1.444797s-1.805996-2.528395-1.805996-3.973192c0-71.87866 58.514286-130.031746 130.031746-130.031746h32.869136c71.87866 0 130.031746 58.514286 130.031746 130.031746 0 1.444797-0.722399 2.889594-1.444797 3.973192-0.722399 0.722399-2.167196 1.444797-3.611993 1.444797z m-276.67866-10.835978h271.26067c-2.889594-63.209877-55.263492-114.138977-119.195767-114.138977h-32.869136c-63.932275 0-116.306173 50.567901-119.195767 114.138977z" fill="#030000" p-id="4145"></path><path d="M728.177778 772.96649H335.915344c-50.929101 0-92.467019-41.537919-92.467019-92.467019v-212.023986c0-50.929101 41.537919-92.467019 92.467019-92.467019h391.901234c50.929101 0 92.467019 41.537919 92.46702 92.467019v212.023986c0.361199 50.929101-41.17672 92.467019-92.10582 92.467019zM335.915344 386.844444c-45.149912 0-81.631041 36.481129-81.631041 81.631041v212.023986c0 45.149912 36.481129 81.631041 81.631041 81.63104h391.901234c45.149912 0 81.631041-36.481129 81.631041-81.63104v-212.023986c0-45.149912-36.481129-81.631041-81.631041-81.631041H335.915344z" fill="#030000" p-id="4146"></path><path d="M546.494533 720.953792h-29.257143c-22.394356 0-40.454321-18.059965-40.454321-40.454321v-51.2903h-51.2903c-22.394356 0-40.454321-18.059965-40.454321-40.454321v-28.895943c0-22.394356 18.059965-40.454321 40.454321-40.454321H476.783069v-51.2903c0-22.394356 18.059965-40.454321 40.454321-40.454321h29.257143c22.394356 0 40.454321 18.059965 40.454321 40.454321v51.2903h51.290299c22.394356 0 40.454321 18.059965 40.454321 40.454321v29.257142c0 22.394356-18.059965 40.454321-40.454321 40.454321h-51.290299v51.2903c0 22.033157-18.059965 40.093122-40.454321 40.093122z m-121.001764-190.713228c-16.253968 0-29.618342 13.364374-29.618342 29.618343v29.257142c0 16.253968 13.364374 29.618342 29.618342 29.618343H487.619048v62.126278c0 16.253968 13.364374 29.618342 29.618342 29.618342h29.257143c16.253968 0 29.618342-13.364374 29.618342-29.618342v-62.126278h62.126278c16.253968 0 29.618342-13.364374 29.618343-29.618343V559.858907c0-16.253968-13.364374-29.618342-29.618343-29.618343h-62.126278v-62.126278c0-16.253968-13.364374-29.618342-29.618342-29.618342h-29.257143c-16.253968 0-29.618342 13.364374-29.618342 29.618342v62.126278h-62.126279z" fill="#231815" p-id="4147"></path></svg>