<?xml version="1.0" standalone="no"?><!DOCTYPE svg PUBLIC "-//W3C//DTD SVG 1.1//EN" "http://www.w3.org/Graphics/SVG/1.1/DTD/svg11.dtd"><svg t="1576400698273" class="icon" viewBox="0 0 1024 1024" version="1.1" xmlns="http://www.w3.org/2000/svg" p-id="7939" xmlns:xlink="http://www.w3.org/1999/xlink" width="128" height="128"><defs><style type="text/css"></style></defs><path d="M421.888 362.496c0 34.816-14.336 65.536-38.912 88.064-10.24 8.192-22.528 16.384-34.816 22.528 4.096 6.144 6.144 12.288 6.144 20.48V942.08c0 22.528-18.432 40.96-40.96 40.96s-40.96-18.432-40.96-40.96V491.52c0-6.144 2.048-10.24 2.048-14.336-14.336-4.096-26.624-10.24-36.864-16.384-30.72-20.48-51.2-57.344-51.2-96.256V22.528h-45.056v339.968c0 63.488 36.864 118.784 90.112 145.408V942.08c0 45.056 36.864 81.92 81.92 81.92s81.92-36.864 81.92-81.92V499.712c45.056-28.672 73.728-79.872 73.728-137.216V22.528h-47.104v339.968z" fill="#2C2C2C" p-id="7940"></path><path d="M233.472 22.528h40.96v245.76h-40.96z m102.4 0h40.96v245.76h-40.96zM837.632 24.576c-135.168 0-245.76 110.592-245.76 245.76v286.72c0 92.16 51.2 174.08 129.024 215.04V942.08c0 45.056 36.864 81.92 81.92 81.92s81.92-36.864 81.92-81.92V24.576h-47.104z m4.096 917.504c0 22.528-18.432 40.96-40.96 40.96s-40.96-18.432-40.96-40.96V747.52c-14.336-6.144-28.672-14.336-40.96-22.528-53.248-36.864-88.064-98.304-88.064-167.936v-286.72c0-112.64 92.16-204.8 204.8-204.8h6.144V942.08z" fill="#2C2C2C" p-id="7941"></path></svg>