<?xml version="1.0" standalone="no"?><!DOCTYPE svg PUBLIC "-//W3C//DTD SVG 1.1//EN" "http://www.w3.org/Graphics/SVG/1.1/DTD/svg11.dtd"><svg t="1576400536879" class="icon" viewBox="0 0 1024 1024" version="1.1" xmlns="http://www.w3.org/2000/svg" p-id="6094" xmlns:xlink="http://www.w3.org/1999/xlink" width="128" height="128"><defs><style type="text/css"></style></defs><path d="M103.424 547.328h27.136v175.616h-27.136z" fill="" p-id="6095"></path><path d="M950.784 394.752h-2.048l1.024 1.024z" fill="" p-id="6096"></path><path d="M949.76 395.776l-1.024 1.536h2.048z" fill="" p-id="6097"></path><path d="M948.736 394.752l-32.768-15.36L548.352 205.824 511.488 188.416l-36.864 17.408-367.616 173.568-32.768 15.36-1.024 0.512 0.512 1.024-0.512 1.024 1.024 0.512 32.768 16.384 370.176 185.856 35.328 17.408L547.84 600.064 916.48 413.696l32.768-16.384 0.512-1.536-1.024-1.024zM511.488 588.288L129.024 396.288 511.488 216.064 893.44 396.288 511.488 588.288z" fill="" p-id="6098"></path><path d="M554.4448 322.05824l4.48512-9.21088L679.99744 371.7888l-4.48 9.20576zM737.37216 402.176L732.79488 411.3408 720.43008 405.15584l4.57728-9.1648zM716.8 500.224V744.96C683.52 783.36 604.16 810.496 511.488 810.496S338.944 783.36 305.664 744.96V500.736h-27.136V744.96C302.08 796.672 396.8 835.584 511.488 835.584s208.896-38.912 232.96-90.624V501.248H716.8v-1.024z" fill="" p-id="6099"></path></svg>