<?xml version="1.0" standalone="no"?><!DOCTYPE svg PUBLIC "-//W3C//DTD SVG 1.1//EN" "http://www.w3.org/Graphics/SVG/1.1/DTD/svg11.dtd"><svg t="1576392263413" class="icon" viewBox="0 0 1024 1024" version="1.1" xmlns="http://www.w3.org/2000/svg" p-id="1976" xmlns:xlink="http://www.w3.org/1999/xlink" width="128" height="128"><defs><style type="text/css"></style></defs><path d="M878.933333 729.6v145.066667c0 38.4-29.866667 68.266667-68.266666 68.266666h-34.133334c-12.8 0-25.6-12.8-25.6-25.6v-290.133333c0-12.8-12.8-25.6-25.6-25.6h-119.466666c-12.8 0-25.6 12.8-25.6 25.6v290.133333c0 12.8-12.8 25.6-25.6 25.6H213.333333c-38.4 0-68.266667-29.866667-68.266666-68.266666v-264.533334c0-8.533333 4.266667-12.8 8.533333-17.066666l341.333333-345.6c8.533333-8.533333 25.6-8.533333 34.133334 0l341.333333 345.6c4.266667 4.266667 8.533333 12.8 8.533333 17.066666v119.466667z" fill="#97A1AA" p-id="1977"></path><path d="M921.6 576c-12.8 0-21.333333-4.266667-29.866667-12.8l-379.733333-384-379.733333 379.733333c-8.533333 8.533333-17.066667 12.8-29.866667 12.8-21.333333 0-42.666667-17.066667-42.666667-42.666666 0-12.8 4.266667-21.333333 12.8-29.866667l409.6-409.6c8.533333-4.266667 17.066667-8.533333 29.866667-8.533333h4.266667c8.533333 0 21.333333 4.266667 25.6 12.8l166.4 166.4v-38.4c0-25.6 17.066667-42.666667 42.666666-42.666667 21.333333 0 42.666667 17.066667 42.666667 42.666667v123.733333l157.866667 157.866667c8.533333 8.533333 12.8 17.066667 12.8 29.866666 0 21.333333-17.066667 42.666667-42.666667 42.666667z" fill="#97A1AA" p-id="1978"></path><path d="M520.533333 192c-4.266667-4.266667-4.266667-4.266667-8.533333-4.266667s-8.533333 4.266667-8.533333 4.266667l-12.8-12.8s8.533333-8.533333 21.333333-8.533333c4.266667 0 12.8 0 21.333333 8.533333l-12.8 12.8z" fill="#97A1AA" p-id="1979"></path></svg>