<?xml version="1.0" standalone="no"?><!DOCTYPE svg PUBLIC "-//W3C//DTD SVG 1.1//EN" "http://www.w3.org/Graphics/SVG/1.1/DTD/svg11.dtd"><svg t="1576400409180" class="icon" viewBox="0 0 1024 1024" version="1.1" xmlns="http://www.w3.org/2000/svg" p-id="5130" xmlns:xlink="http://www.w3.org/1999/xlink" width="128" height="128"><defs><style type="text/css"></style></defs><path d="M506.373626 230.681319h174.417583c50.637363 0 69.767033 18.004396 73.142857 67.516483 1.125275 7.876923 2.250549 16.879121 6.751648 22.505495 28.131868 32.632967 28.131868 56.263736 0 92.272527-5.626374 6.751648-5.626374 19.12967-5.626373 29.257143v202.549451c0 46.136264-12.378022 60.764835-56.263737 70.892307-7.876923 2.250549-16.879121 11.252747-18.004395 18.004396-4.501099 30.382418-21.38022 48.386813-51.762638 48.386813-29.257143 0-42.76044-20.254945-50.637362-47.261538-2.250549-7.876923-15.753846-19.12967-24.756044-19.129671-29.257143-2.250549-58.514286 0-86.646154-1.125274-18.004396-1.125275-25.881319 5.626374-28.131868 23.630769-2.250549 28.131868-21.38022 42.76044-48.386813 43.885714-25.881319 1.125275-43.885714-14.628571-48.386814-39.384615-4.501099-19.12967-10.127473-28.131868-31.507692-28.131868-33.758242-1.125275-52.887912-24.756044-52.887912-60.764836 0-69.767033 1.125275-139.534066-1.125275-208.175824 0-12.378022-7.876923-25.881319-15.753846-37.134066-12.378022-16.879121-11.252747-63.015385 1.125275-78.76923 6.751648-9.002198 13.503297-22.505495 14.628571-33.758242 3.375824-42.76044 23.630769-64.140659 67.516484-64.14066 59.63956-1.125275 120.404396-1.125275 182.294505-1.125274z m-2.250549 300.448351h186.795604c18.004396 0 27.006593-3.375824 27.006594-23.630769-1.125275-48.386813-1.125275-97.898901 0-146.285714 0-18.004396-7.876923-22.505495-24.756044-22.505495H317.327473c-19.12967 0-25.881319 6.751648-25.881319 25.881319 1.125275 46.136264 1.125275 91.147253 0 137.283516-1.125275 25.881319 9.002198 31.507692 32.632967 31.507693 59.63956-2.250549 120.404396-2.250549 180.043956-2.25055z m1.125275 34.883517c-46.136264 0-93.397802-1.125275-139.534066 0-85.520879 1.125275-72.017582-14.628571-73.142857 74.268132 0 36.008791 4.501099 40.50989 41.635164 40.50989h301.573627c91.147253-1.125275 81.01978 12.378022 82.145055-83.27033 0-25.881319-10.127473-31.507692-32.632967-30.382417-60.764835 0-120.404396-1.125275-180.043956-1.125275z m0-262.189011c60.764835 0 122.654945 1.125275 183.41978-1.125275 9.002198 0 19.12967-9.002198 28.131868-14.628571-9.002198-7.876923-18.004396-22.505495-27.006593-22.505495-123.78022-1.125275-246.435165-1.125275-370.215385 0-9.002198 0-18.004396 14.628571-27.006593 22.505495 10.127473 4.501099 19.12967 13.503297 29.257142 14.628571 60.764835 2.250549 122.654945 1.125275 183.419781 1.125275z m97.898901 406.224176c0 32.632967 6.751648 49.512088 29.257143 43.885714 7.876923-2.250549 13.503297-16.879121 19.12967-25.881319-13.503297-5.626374-29.257143-11.252747-48.386813-18.004395z m-238.558242 6.751648c-1.125275 21.38022 2.250549 39.384615 25.881319 37.134066 7.876923-1.125275 22.505495-18.004396 20.254945-24.756044-5.626374-27.006593-28.131868-10.127473-46.136264-12.378022z" fill="#5A4C4C" p-id="5131"></path><path d="M504.123077 531.12967c-59.63956 0-120.404396-1.125275-180.043956 0-23.630769 0-33.758242-5.626374-32.632967-31.507692 2.250549-45.010989 1.125275-91.147253 0-137.283516 0-18.004396 6.751648-25.881319 25.881319-25.881319h375.841758c16.879121 0 24.756044 4.501099 24.756044 22.505494-1.125275 48.386813-1.125275 97.898901 0 146.285715 0 20.254945-9.002198 23.630769-27.006594 23.630769-61.89011 2.250549-123.78022 2.250549-186.795604 2.250549zM505.248352 566.013187c59.63956 0 120.404396 1.125275 180.043956 0 22.505495 0 33.758242 4.501099 32.632967 30.382417-2.250549 95.648352 9.002198 83.27033-82.145055 83.27033-100.149451 1.125275-201.424176 0-301.573627 0-37.134066 0-42.76044-4.501099-41.635164-40.50989 1.125275-88.896703-12.378022-73.142857 73.142857-74.268132 46.136264 0 92.272527 1.125275 139.534066 1.125275zM686.417582 626.778022v-13.503297c-12.378022-9.002198-24.756044-25.881319-34.883516-24.756044-11.252747 1.125275-29.257143 19.12967-30.382418 29.257143 0 10.127473 16.879121 29.257143 28.131868 30.382418 12.378022 3.375824 25.881319-12.378022 37.134066-21.38022z m-283.56923-3.375824v-14.628572c-11.252747-7.876923-22.505495-21.38022-34.883517-23.630769-19.12967-3.375824-33.758242 10.127473-30.382417 28.131868 2.250549 12.378022 16.879121 28.131868 28.131868 30.382418 12.378022 2.250549 25.881319-12.378022 37.134066-20.254945zM505.248352 303.824176c-60.764835 0-122.654945 1.125275-183.419781 0-10.127473 0-19.12967-9.002198-29.257142-14.628572 9.002198-7.876923 18.004396-22.505495 27.006593-22.505494 123.78022-1.125275 246.435165-1.125275 370.215385 0 9.002198 0 18.004396 14.628571 27.006593 22.505494-9.002198 4.501099-19.12967 14.628571-28.131868 14.628572-60.764835 1.125275-122.654945 0-183.41978 0z" fill="#FFFFFF" p-id="5132"></path><path d="M686.417582 626.778022c-12.378022 7.876923-25.881319 23.630769-36.008791 22.505494-11.252747-2.250549-29.257143-20.254945-28.131868-30.382417 0-11.252747 18.004396-28.131868 30.382418-29.257143 11.252747-1.125275 23.630769 15.753846 34.883516 24.756044 0 3.375824-1.125275 7.876923-1.125275 12.378022zM402.848352 623.402198c-12.378022 7.876923-25.881319 22.505495-36.008792 20.254945-11.252747-2.250549-25.881319-18.004396-28.131868-30.382418-3.375824-18.004396 11.252747-32.632967 30.382418-28.131868 12.378022 2.250549 23.630769 15.753846 34.883516 23.630769 0 4.501099 0 10.127473-1.125274 14.628572z" fill="#5A4C4C" p-id="5133"></path></svg>